<svg width="17" height="5" viewBox="0 0 17 5" fill="none" xmlns="http://www.w3.org/2000/svg">
<path fill-rule="evenodd" clip-rule="evenodd" d="M0.166626 2.5C0.166626 1.59856 0.841473 0.9375 1.70037 0.9375C2.55926 0.9375 3.21366 1.59856 3.21366 2.5C3.21366 3.40144 2.55926 4.0625 1.70037 4.0625C0.841473 4.0625 0.166626 3.40144 0.166626 2.5ZM6.97644 2.5C6.97644 1.59856 7.65129 0.9375 8.51018 0.9375C9.36908 0.9375 10.0235 1.59856 10.0235 2.5C10.0235 3.40144 9.36908 4.0625 8.51018 4.0625C7.65129 4.0625 6.97644 3.40144 6.97644 2.5ZM13.8068 2.5C13.8068 1.59856 14.4612 0.9375 15.3201 0.9375C16.179 0.9375 16.8333 1.59856 16.8333 2.5C16.8333 3.40144 16.179 4.0625 15.3201 4.0625C14.4612 4.0625 13.8068 3.40144 13.8068 2.5Z" fill="black" fill-opacity="0.21023"/>
</svg>
