<svg width="14" height="14" viewBox="0 0 14 14" fill="none" xmlns="http://www.w3.org/2000/svg">
<path fill-rule="evenodd" clip-rule="evenodd" d="M13.3522 1.31873C13.0875 1.05402 12.74 0.921082 12.3925 0.921082C12.0449 0.921082 11.6974 1.05402 11.4326 1.31873C11.4326 1.31873 11.4131 1.33722 11.3879 1.3634C11.3868 1.3645 11.3855 1.3653 11.3842 1.36615C11.3828 1.36694 11.3815 1.36774 11.3804 1.36884L1.56262 11.1855C1.52881 11.2204 1.50378 11.2629 1.49072 11.3109L0.930786 13.3992C0.904663 13.4951 0.931885 13.5975 1.00269 13.6683C1.02051 13.6861 1.04016 13.7011 1.06128 13.7132C1.10339 13.7374 1.15112 13.75 1.19983 13.75C1.22388 13.75 1.2478 13.7468 1.27173 13.7402L3.36011 13.1802C3.40808 13.1672 3.45056 13.1422 3.48547 13.1073L13.3021 3.29163C13.3036 3.29016 13.3046 3.28845 13.3054 3.28674L13.3065 3.28467C13.3071 3.28326 13.3077 3.28192 13.3086 3.28076L13.3511 3.23828C13.8827 2.7077 13.8827 1.84814 13.3522 1.31873ZM12.9579 1.71313C13.2694 2.02466 13.2694 2.53235 12.9579 2.84393C12.8652 2.93542 12.7869 3.01495 12.7194 3.08252L11.5885 1.95166L11.827 1.71313C11.9774 1.56171 12.179 1.47888 12.3925 1.47888C12.606 1.47888 12.8065 1.56274 12.9579 1.71313ZM2.83069 12.7445L1.92651 11.8403L1.59424 13.0768L2.83069 12.7445Z" fill="white"/>
</svg>
