<svg width="10" height="16" viewBox="0 0 10 16" fill="none" xmlns="http://www.w3.org/2000/svg">
<path fill-rule="evenodd" clip-rule="evenodd" d="M8.03564 0.500122C7.84553 0.500122 7.66504 0.583681 7.54204 0.728629L3.33393 5.68759L4.2124 5.98595C4.35782 6.03534 4.45607 6.17132 4.45731 6.32489L4.47959 9.08726C4.48086 9.24474 4.37991 9.38487 4.23014 9.43354L3.2605 9.74859L7.54156 15.25C7.66421 15.4076 7.85275 15.4998 8.05246 15.4998H9.15772C9.64725 15.4998 9.95966 14.9774 9.72806 14.5461L6.19931 7.97498C6.09857 7.78738 6.09653 7.56225 6.19384 7.37285L9.24045 1.44334C9.4618 1.01253 9.149 0.500122 8.66464 0.500122H8.03564ZM0.859153 1.39759C0.859153 0.893607 1.40964 0.582912 1.84109 0.843379L2.40431 1.18339C2.59845 1.30059 2.71711 1.51083 2.71711 1.7376V14.6342C2.71711 15.1251 2.19205 15.4374 1.76069 15.2031L1.19747 14.897C0.988969 14.7838 0.859153 14.5655 0.859153 14.3282V9.60704L0.26122 9.39356C0.118519 9.34261 0.0228149 9.20798 0.0215928 9.05646L-0.000720574 6.2899C-0.00199061 6.13242 0.0989601 5.99229 0.248735 5.94362L0.859153 5.74529V1.39759Z" fill="white"/>
</svg>
