<?xml version="1.0" encoding="UTF-8"?><!DOCTYPE svg PUBLIC "-//W3C//DTD SVG 1.1//EN" "http://www.w3.org/Graphics/SVG/1.1/DTD/svg11.dtd"><svg xmlns="http://www.w3.org/2000/svg"><defs>
        <radialGradient id="a" cx="0" cy="0" r="1" gradientUnits="userSpaceOnUse" gradientTransform="matrix(0 42.6372 -42.6372 0 9.606 0)">
            <stop stop-color="#4A90E2"/>
            <stop offset="1" stop-color="#4361CE"/>
        </radialGradient>
    </defs><symbol id="icon-arrow-left" viewBox="0 0 7 11">
    <path d="M5.8 1.1L1.6 5.3l4.2 4.2" stroke-width="1.568" stroke-linecap="round" stroke-linejoin="round"/>
</symbol><symbol id="icon-dots" viewBox="0 0 17 5">
    <path fill-rule="evenodd" clip-rule="evenodd" d="M.167 2.5C.167 1.599.84.937 1.7.937c.86 0 1.514.662 1.514 1.563 0 .901-.655 1.563-1.514 1.563S.167 3.4.167 2.5zm6.81 0c0-.901.674-1.563 1.533-1.563.86 0 1.514.662 1.514 1.563 0 .901-.655 1.563-1.514 1.563S6.976 3.4 6.976 2.5zm6.83 0c0-.901.654-1.563 1.513-1.563.859 0 1.513.662 1.513 1.563 0 .901-.654 1.563-1.513 1.563-.859 0-1.513-.662-1.513-1.563z" fill-opacity=".21"/>
</symbol><symbol id="icon-edit" viewBox="0 0 14 14">
    <path fill-rule="evenodd" clip-rule="evenodd" d="M13.352 1.319a1.354 1.354 0 0 0-1.92 0l-.044.044-.004.003a.017.017 0 0 0-.004.003l-9.817 9.816a.289.289 0 0 0-.072.126l-.56 2.088a.277.277 0 0 0 .34.341l2.09-.56a.28.28 0 0 0 .124-.073l9.817-9.815a.016.016 0 0 0 .003-.005l.002-.002c0-.002 0-.003.002-.004l.042-.043c.532-.53.532-1.39.001-1.92zm-.394.394a.801.801 0 0 1 0 1.13l-.239.24-1.13-1.131.238-.239a.798.798 0 0 1 1.13 0zM2.83 12.745l-.904-.905-.333 1.237 1.237-.332z"/>
</symbol><symbol id="icon-facebook" viewBox="0 0 10 19">
    <title>
        facebook
    </title>
    <path d="M9.766.157v2.946H8.014c-.64 0-1.071.134-1.295.402-.223.268-.335.67-.335 1.205v2.11h3.27l-.435 3.303H6.384v8.471H2.97v-8.47H.123V6.82H2.97V4.387c0-1.384.387-2.457 1.161-3.22C4.904.404 5.934.023 7.222.023c1.093 0 1.941.045 2.544.134z" fill-rule="evenodd"/>
</symbol><symbol id="icon-logo" viewBox="0 0 10 16">
    <path fill-rule="evenodd" clip-rule="evenodd" d="M8.036.5c-.19 0-.371.084-.494.229L3.334 5.688l.878.298c.146.05.244.185.245.339l.023 2.762a.361.361 0 0 1-.25.347l-.97.315 4.282 5.501c.122.158.31.25.51.25h1.106c.49 0 .802-.523.57-.954L6.2 7.975a.647.647 0 0 1-.005-.602l3.046-5.93A.647.647 0 0 0 8.665.5h-.63zm-7.177.898c0-.504.55-.815.982-.555l.563.34a.647.647 0 0 1 .313.555v12.896c0 .491-.525.803-.956.57l-.564-.307a.647.647 0 0 1-.338-.569V9.607l-.598-.213a.361.361 0 0 1-.24-.338L0 6.29a.361.361 0 0 1 .25-.346l.61-.199V1.398z"/>
</symbol><symbol id="icon-search" viewBox="0 0 20 20">
    <path fill-rule="evenodd" clip-rule="evenodd" d="M19.212 8c0-4.409-3.591-8-8-8-4.41 0-8 3.591-8 8 0 1.917.68 3.678 1.81 5.058L.247 17.834a.8.8 0 1 0 1.131 1.132l4.777-4.777A7.958 7.958 0 0 0 11.212 16c4.409 0 8-3.591 8-8zm-14.4 0c0-3.544 2.856-6.4 6.4-6.4 3.544 0 6.4 2.856 6.4 6.4 0 3.544-2.856 6.4-6.4 6.4a6.388 6.388 0 0 1-6.4-6.4z"/>
    
</symbol></svg>